<?xml version="1.0" encoding="iso-8859-1"?>
<!-- Generator: Adobe Illustrator 19.0.0, SVG Export Plug-In . SVG Version: 6.00 Build 0)  -->
<svg version="1.1" id="Capa_1" xmlns="http://www.w3.org/2000/svg" xmlns:xlink="http://www.w3.org/1999/xlink" x="0px" y="0px"
	 viewBox="0 0 512 512" style="enable-background:new 0 0 512 512;" xml:space="preserve">
<polygon style="fill:#A0E892;" points="225.529,401.095 370.624,256 225.529,110.904 291.217,45.216 502,256 291.217,466.783 "/>
<polygon style="fill:#C4FFB6;" points="10,401.095 155.095,256 10,110.904 75.688,45.216 286.471,256 75.688,466.783 "/>
<path d="M75.688,476.783c-2.559,0-5.118-0.977-7.071-2.929L2.929,408.167C1.054,406.291,0,403.748,0,401.096
	s1.054-5.195,2.929-7.071L140.953,256L2.929,117.975C1.054,116.099,0,113.556,0,110.904s1.054-5.195,2.929-7.071l65.688-65.688
	c3.905-3.904,10.237-3.904,14.142,0l84.048,84.048c3.905,3.905,3.905,10.237,0,14.143c-3.905,3.904-10.237,3.904-14.143,0
	L75.688,59.359l-51.546,51.545l138.024,138.024c3.905,3.905,3.905,10.237,0,14.143L24.142,401.096l51.546,51.545L272.329,256
	l-64.665-64.664c-3.905-3.905-3.905-10.237,0-14.143c3.905-3.904,10.237-3.904,14.143,0l71.735,71.735
	c3.905,3.905,3.905,10.237,0,14.143L82.759,473.854C80.807,475.806,78.247,476.783,75.688,476.783z"/>
<path d="M188.24,167.769c-2.63,0-5.21-1.069-7.07-2.93c-1.87-1.86-2.93-4.44-2.93-7.07c0-2.64,1.06-5.21,2.93-7.08
	c1.86-1.859,4.43-2.92,7.07-2.92c2.63,0,5.21,1.061,7.07,2.92c1.86,1.87,2.93,4.44,2.93,7.08c0,2.63-1.07,5.21-2.93,7.07
	C193.45,166.7,190.87,167.769,188.24,167.769z"/>
<path d="M336.254,356.728l-0.092,0.093c-3.895,3.916-3.878,10.247,0.038,14.143c1.951,1.94,4.501,2.91,7.052,2.91
	c2.568,0,5.136-0.983,7.09-2.947l0.092-0.093c3.895-3.916,3.878-10.247-0.038-14.143
	C346.48,352.797,340.149,352.814,336.254,356.728z"/>
<path d="M509.071,248.929L298.288,38.145c-3.905-3.904-10.237-3.904-14.143,0l-65.688,65.688c-1.875,1.876-2.929,4.419-2.929,7.071
	s1.054,5.195,2.929,7.071L356.482,256L218.458,394.024c-1.875,1.876-2.929,4.419-2.929,7.071s1.054,5.195,2.929,7.071l65.688,65.688
	c1.953,1.952,4.512,2.929,7.071,2.929s5.119-0.977,7.071-2.929l210.783-210.783C512.977,259.166,512.977,252.834,509.071,248.929z
	 M291.217,452.64l-11.295-11.295l47.4-47.4c3.905-3.905,3.905-10.237,0-14.143c-3.905-3.904-10.237-3.904-14.143,0l-47.4,47.4
	l-26.108-26.108L377.695,263.07c3.905-3.905,3.905-10.237,0-14.143L239.671,110.904l51.546-51.545L487.858,256L291.217,452.64z"/>
<g>
</g>
<g>
</g>
<g>
</g>
<g>
</g>
<g>
</g>
<g>
</g>
<g>
</g>
<g>
</g>
<g>
</g>
<g>
</g>
<g>
</g>
<g>
</g>
<g>
</g>
<g>
</g>
<g>
</g>
</svg>
