<?xml version="1.0" encoding="iso-8859-1"?>
<!-- Generator: Adobe Illustrator 19.0.0, SVG Export Plug-In . SVG Version: 6.00 Build 0)  -->
<svg version="1.1" id="Layer_1" xmlns="http://www.w3.org/2000/svg" xmlns:xlink="http://www.w3.org/1999/xlink" x="0px" y="0px"
	 viewBox="0 0 501.975 501.975" style="enable-background:new 0 0 501.975 501.975;" xml:space="preserve">
<g>
	<g>
		<g>
			<path d="M151.643,501.975c-13.973,0-27.108-5.441-36.989-15.321c-9.88-9.88-15.321-23.017-15.321-36.989
				s5.441-27.109,15.321-36.989l161.701-161.701l-161.701-161.7c-9.88-9.88-15.321-23.017-15.321-36.989s5.441-27.109,15.321-36.989
				c20.397-20.396,53.583-20.394,73.979,0l198.689,198.689c9.88,9.88,15.321,23.017,15.321,36.989s-5.441,27.109-15.321,36.99
				L188.632,486.654C178.751,496.534,165.615,501.975,151.643,501.975z M151.643,19.99c-8.274,0-16.548,3.149-22.847,9.449
				c-6.103,6.103-9.464,14.216-9.464,22.847s3.361,16.744,9.464,22.847l168.771,168.771c1.875,1.875,2.929,4.419,2.929,7.071
				s-1.054,5.196-2.929,7.071L128.796,426.818c-6.103,6.103-9.464,14.216-9.464,22.847s3.361,16.744,9.464,22.847
				c6.103,6.103,14.217,9.464,22.847,9.464s16.744-3.361,22.847-9.464l198.689-198.689c6.103-6.103,9.464-14.216,9.464-22.847
				c0-8.63-3.361-16.744-9.464-22.847L174.489,29.439C168.191,23.14,159.917,19.99,151.643,19.99z"/>
		</g>
	</g>
	<g>
		<path d="M284.751,185.703c-2.56,0-5.118-0.976-7.071-2.929L145.987,51.083c-3.905-3.905-3.905-10.237,0-14.143
			c3.906-3.904,10.236-3.905,14.143,0l131.692,131.691c3.905,3.905,3.905,10.237,0,14.143
			C289.869,184.727,287.311,185.703,284.751,185.703z"/>
	</g>
	<g>
		<path d="M330.235,231.187c-2.56,0-5.118-0.976-7.071-2.929l-16.131-16.131c-3.905-3.905-3.905-10.237,0-14.143
			c3.906-3.905,10.236-3.905,14.143,0l16.131,16.131c3.905,3.905,3.905,10.237,0,14.143
			C335.353,230.211,332.794,231.187,330.235,231.187z"/>
	</g>
</g>
<g>
</g>
<g>
</g>
<g>
</g>
<g>
</g>
<g>
</g>
<g>
</g>
<g>
</g>
<g>
</g>
<g>
</g>
<g>
</g>
<g>
</g>
<g>
</g>
<g>
</g>
<g>
</g>
<g>
</g>
</svg>
