<?xml version="1.0" encoding="iso-8859-1"?>
<!-- Generator: Adobe Illustrator 19.0.0, SVG Export Plug-In . SVG Version: 6.00 Build 0)  -->
<svg version="1.1" id="Capa_1" xmlns="http://www.w3.org/2000/svg" xmlns:xlink="http://www.w3.org/1999/xlink" x="0px" y="0px"
	 viewBox="0 0 512 512" style="enable-background:new 0 0 512 512;" xml:space="preserve">
<polygon style="fill:#C4FFB6;" points="63.9,296.668 63.9,363.8 171.7,256 63.9,148.2 63.9,223.667 "/>
<polygon style="fill:#7FD36A;" points="125.437,425.337 294.775,256 125.437,86.663 202.1,10 448.1,256 202.1,502 "/>
<path d="M63.898,373.8c-1.288,0-2.588-0.249-3.825-0.761c-3.736-1.548-6.173-5.194-6.173-9.239v-67.132c0-5.522,4.478-10,10-10
	s10,4.478,10,10v42.989L157.557,256L73.9,172.343v51.324c0,5.523-4.478,10-10,10s-10-4.477-10-10V148.2
	c0-4.044,2.437-7.691,6.173-9.239c3.737-1.547,8.038-0.693,10.898,2.167l107.8,107.8c3.905,3.905,3.905,10.237,0,14.143
	l-107.8,107.8C69.058,372.784,66.5,373.8,63.898,373.8z"/>
<path d="M63.9,270.625c-5.522,0-10-4.478-10-10V260c0-5.523,4.478-10,10-10c5.522,0,10,4.477,10,10v0.625
	C73.9,266.148,69.422,270.625,63.9,270.625z"/>
<path d="M455.171,248.929l-246-246c-3.906-3.905-10.236-3.905-14.143,0l-76.663,76.663c-1.875,1.875-2.929,4.419-2.929,7.071
	s1.054,5.196,2.929,7.071L280.632,256L118.366,418.266c-1.875,1.876-2.929,4.419-2.929,7.071s1.054,5.195,2.929,7.071l76.663,76.663
	c1.953,1.952,4.512,2.929,7.071,2.929s5.118-0.977,7.071-2.929l246-246C459.077,259.166,459.077,252.834,455.171,248.929z
	 M422.616,267.342l-50.674-50.673c-3.906-3.905-10.236-3.905-14.143,0c-3.905,3.905-3.905,10.237,0,14.142l50.674,50.673
	L202.1,487.858l-62.521-62.521l162.267-162.266c1.875-1.876,2.929-4.419,2.929-7.071s-1.054-5.196-2.929-7.071L139.58,86.663
	l62.52-62.521L433.958,256L422.616,267.342z"/>
<path d="M341.87,210.739c-2.568,0-5.136-0.983-7.09-2.948l-0.092-0.092c-3.895-3.916-3.878-10.247,0.037-14.142
	c3.915-3.895,10.247-3.879,14.143,0.038l0.092,0.092c3.895,3.916,3.878,10.247-0.037,14.142
	C346.971,209.769,344.42,210.739,341.87,210.739z"/>
<g>
</g>
<g>
</g>
<g>
</g>
<g>
</g>
<g>
</g>
<g>
</g>
<g>
</g>
<g>
</g>
<g>
</g>
<g>
</g>
<g>
</g>
<g>
</g>
<g>
</g>
<g>
</g>
<g>
</g>
</svg>
